<?xml version="1.0" encoding="UTF-8"?>
<svg id="Camada_1" data-name="Camada 1" xmlns="http://www.w3.org/2000/svg" version="1.1" viewBox="0 0 512 512">
  <defs>
    <style>
      .cls-1 {
        fill: #fff;
        stroke-width: 0px;
      }
    </style>
  </defs>
  <path class="cls-1" d="M234,6.6c-1.9.2-7.3.9-12,1.5C139.6,18.1,65.6,70.6,27,146.4,9,181.9,1.3,213,.3,254.9c-.6,25.9.4,39.5,4.9,61.1,15.7,76.6,69.8,145.2,140.4,178,23.3,10.8,35,13.8,41.3,10.5,5.6-2.8,6.1-5.7,6.1-34v-25.7l-3.2.6c-1.8.3-9.7.9-17.4,1.2-25.9,1.2-43.1-3.5-54.9-15-4.5-4.4-6.7-7.9-12.4-19.7-7.9-16.5-13.9-25.2-21.3-30.8-2.9-2.2-6.9-5.3-8.9-6.8-4.5-3.5-7.4-8.2-6-9.6s3-1.3,5.3-1.7c15.6-2.1,32.3,8.4,46.6,29.5,7.6,11.3,15.2,17.8,24.9,21.6,9.9,3.8,29.2,2.9,42.6-2.1,3.9-1.5,5.7-2.7,5.7-3.9,0-7.1,5.9-21,12.1-28.3,4.6-5.5,5.2-5-8.3-6.8-36.1-4.7-67.8-21.3-83-43.4-9-13.1-16.2-32.1-19.5-51.6-2-12-2.3-40.1-.5-48.5,3.5-16.2,9.2-28.9,18.4-41,6.1-7.9,6.1-8,4.9-12-4.9-17.2-5.2-32.6-.7-49.9,3.4-13.2,4.4-14.6,10.2-14.6,11.5,0,36.9,10.1,57.2,22.7l7.2,4.5,8.8-2.1c35.2-8.5,75.2-8.5,110.4,0l8.8,2.1,7.2-4.4c23.4-14.4,44.3-22.7,56.9-22.8,2.6,0,5.1.6,5.7,1.2,1.6,2,6,17.6,7.1,25.5,1.9,12.8,1.1,23.1-2.9,37.3l-1.3,4.6,5.8,7.4c16.1,21,22.5,45.7,19.6,76.9-3.9,42-18,69.7-44.1,86.6-17.7,11.5-36.2,18.2-59.5,21.4-13.9,2-13.1,1.3-8.2,7.4,2.3,2.8,5.5,8,7,11.4,5.1,11.5,5.7,17.6,5.7,62.4s.1,45.5,5.5,49.7c4.3,3.4,10.4,2.9,22.6-1.7,35-13.3,63.2-31.4,89.4-57.6,42.6-42.5,68.6-96.6,74.5-155.1,1.6-15.4.8-53.1-1.4-66.9-5.9-36.3-19.4-71.3-39.1-101-41.3-62.2-102.7-101.5-176.5-113-10-1.6-51.6-2.9-60-1.9Z"/>
</svg>