<?xml version="1.0" encoding="UTF-8"?>
<svg id="Camada_1" data-name="Camada 1" xmlns="http://www.w3.org/2000/svg" version="1.1" viewBox="0 0 480 480">
  <defs>
    <style>
      .cls-1 {
        fill: #fff;
        stroke-width: 0px;
      }
    </style>
  </defs>
  <path class="cls-1" d="M24,2.7C14.4,6,6.7,13.5,2.6,23.3l-2.1,5.2L.2,234c-.2,135.4.1,208.1.7,213.2,1.8,13.2,8.2,22.7,19.3,28.5l5.3,2.8h429l5.3-2.8c11.1-5.8,17.5-15.3,19.3-28.5.6-5.1.9-77.8.7-213.2-.3-194.4-.4-205.7-2.1-210-4-10.1-12.2-18-22-21.4-4.3-1.5-23.6-1.6-216-1.6C50.3,1.1,28,1.3,24,2.7ZM124,70.2c21.8,10.1,31.1,35,20.9,55.6-12.6,25.7-46.5,31.6-66.5,11.5-15.9-16-16.2-40.8-.6-57.5,9-9.6,17.2-12.9,31.2-12.5,7.7.2,10.5.8,15,2.9ZM348.9,177c24.7,5,42.6,20.2,51,43.6,7.9,21.7,9.1,38.2,9.1,123.6v63.8h-71.9l-.3-68.3c-.4-66.8-.4-68.4-2.6-76.2-3.2-11.7-7.9-18.1-16.6-22.5-6.6-3.3-7.4-3.5-17.5-3.5s-11.8.5-15.6,1.9c-15.2,5.8-23,17.8-25.5,39.3-.5,5-1,34.9-1,69v60.3h-71v-228h67.9l.3,15.6.3,15.6,3.9-5.7c11.5-16.6,33.3-28.6,56.1-30.9,7.2-.7,23.8.5,33.4,2.4ZM143,294v114h-71v-228h71v114Z"/>
</svg>